name C:\Users\u0150099\Documents\master_thesis\3dpredictsim\Results\debug\Fal_s1_mtjc2_sc_cspx10_oy2_MTc2_MTPm_k1_d01_MTJm_nl_MG_exp5_table_d01_PF_Gefen2002_ls146_ig21.mot
datacolumns 128
datarows 4
range 0.58238028 0.61732310
endheader
time	pelvis_tilt	pelvis_list	pelvis_rotation	pelvis_tx	pelvis_ty	pelvis_tz	hip_flexion_l	hip_adduction_l	hip_rotation_l	hip_flexion_r	hip_adduction_r	hip_rotation_r	knee_angle_l	knee_angle_r	ankle_angle_l	ankle_angle_r	subtalar_angle_l	subtalar_angle_r	mtj_angle_l	mtj_angle_r	mtp_angle_l	mtp_angle_r	lumbar_extension	lumbar_bending	lumbar_rotation	arm_flex_l	arm_add_l	arm_rot_l	arm_flex_r	arm_add_r	arm_rot_r	elbow_flex_l	elbow_flex_r	pro_sup_l	pro_sup_r	glut_med1_l/activation	glut_med2_l/activation	glut_med3_l/activation	glut_min1_l/activation	glut_min2_l/activation	glut_min3_l/activation	semimem_l/activation	semiten_l/activation	bifemlh_l/activation	bifemsh_l/activation	sar_l/activation	add_long_l/activation	add_brev_l/activation	add_mag1_l/activation	add_mag2_l/activation	add_mag3_l/activation	tfl_l/activation	pect_l/activation	grac_l/activation	glut_max1_l/activation	glut_max2_l/activation	glut_max3_l/activation	iliacus_l/activation	psoas_l/activation	quad_fem_l/activation	gem_l/activation	peri_l/activation	rect_fem_l/activation	vas_med_l/activation	vas_int_l/activation	vas_lat_l/activation	med_gas_l/activation	lat_gas_l/activation	soleus_l/activation	tib_post_l/activation	flex_dig_l/activation	flex_hal_l/activation	tib_ant_l/activation	per_brev_l/activation	per_long_l/activation	per_tert_l/activation	ext_dig_l/activation	ext_hal_l/activation	ercspn_l/activation	intobl_l/activation	extobl_l/activation	glut_med1_r/activation	glut_med2_r/activation	glut_med3_r/activation	glut_min1_r/activation	glut_min2_r/activation	glut_min3_r/activation	semimem_r/activation	semiten_r/activation	bifemlh_r/activation	bifemsh_r/activation	sar_r/activation	add_long_r/activation	add_brev_r/activation	add_mag1_r/activation	add_mag2_r/activation	add_mag3_r/activation	tfl_r/activation	pect_r/activation	grac_r/activation	glut_max1_r/activation	glut_max2_r/activation	glut_max3_r/activation	iliacus_r/activation	psoas_r/activation	quad_fem_r/activation	gem_r/activation	peri_r/activation	rect_fem_r/activation	vas_med_r/activation	vas_int_r/activation	vas_lat_r/activation	med_gas_r/activation	lat_gas_r/activation	soleus_r/activation	tib_post_r/activation	flex_dig_r/activation	flex_hal_r/activation	tib_ant_r/activation	per_brev_r/activation	per_long_r/activation	per_tert_r/activation	ext_dig_r/activation	ext_hal_r/activation	ercspn_r/activation	intobl_r/activation	extobl_r/activation	
          0.58238028	         -2.86438215	          3.63820156	         -9.79127880	          0.77456577	          0.89776984	          0.00915739	         31.48807670	          0.23025017	        -11.11319434	         -9.79342780	         -4.43974390	        -13.03720777	        -12.75222334	        -23.79280601	          4.34030131	         -1.60257381	         -6.06937710	         -5.26129553	          7.98024346	          9.26675361	         -7.41177789	         28.96007032	         -4.22516323	         -0.93344747	          2.34851748	         -5.99510221	        -13.45934759	         12.37328783	          9.02525924	        -13.65443033	         18.86676350	         16.52369933	         41.67484085	         86.51662706	         86.51662706	          0.05000022	          0.05000016	          0.05000024	          0.05000049	          0.05000044	          0.05000079	          0.12512550	          0.07129697	          0.07129698	          0.07138368	          0.18510277	          0.10671577	          0.05970590	          0.05000246	          0.05000041	          0.19432035	          0.05000075	          0.07148764	          0.12233882	          0.05000021	          0.05000011	          0.14358628	          0.17648113	          0.19179066	          0.28097155	          0.19959471	          0.05970669	          0.05000004	          0.05000005	          0.05000005	          0.05000004	          0.14496799	          0.14493154	          0.06440494	          0.05000020	          0.05000009	          0.05000010	          0.73075616	          0.12085559	          0.24719121	          0.58125233	          0.59927020	          0.06366735	          0.06105956	          0.17979642	          0.08183624	          0.13807993	          0.05000021	          0.05000015	          0.23264229	          0.10089826	          0.06619433	          0.05000080	          0.05000010	          0.05000012	          0.05000006	          0.05000065	          0.10540800	          0.05000060	          0.05000112	          0.07427143	          0.12249335	          0.34280807	          0.05000560	          0.05000025	          0.05000800	          0.05000355	          0.05000105	          0.05970157	          0.09486135	          0.05000011	          0.05000028	          0.12047373	          0.77338715	          0.15683853	          0.15866530	          0.12429265	          0.48504797	          0.71484691	          0.11435601	          0.50624571	          0.98696656	          0.70955389	          0.05000003	          0.52947085	          0.59425650	          0.05000005	          0.05000005	          0.10166486	          0.05000038	          0.05000013	          0.05000009	
          0.59402788	         -2.87234604	          3.72482064	        -10.32094713	          0.79327087	          0.89535771	          0.00855836	         31.88761924	          0.28662639	        -11.09129753	        -11.55866076	         -4.85434368	        -13.62175356	        -14.11927372	        -22.29358223	          4.09266140	         -3.02594211	         -5.74786856	         -5.51056610	          7.96528114	          9.09019837	         -6.39903491	         30.15674144	         -4.08248731	         -1.07398855	          2.52111800	         -7.55501207	        -13.45102854	         12.27987315	          9.11214131	        -13.60821866	         19.10149026	         16.42553616	         43.41325811	         86.51662706	         86.51662706	          0.05000009	          0.05000031	          0.05000037	          0.05000099	          0.05000117	          0.05000041	          0.10478411	          0.05970640	          0.05970639	          0.05977900	          0.15501114	          0.20332548	          0.05000026	          0.05000035	          0.05000023	          0.24651187	          0.05000518	          0.05986718	          0.10245060	          0.05000027	          0.05000030	          0.23659149	          0.15000967	          0.17169073	          0.39861007	          0.16714918	          0.05000061	          0.05000002	          0.05000001	          0.05000001	          0.05000001	          0.12140084	          0.12137032	          0.05959072	          0.05799192	          0.05970623	          0.05970611	          0.69186525	          0.10120836	          0.31819635	          0.48675941	          0.70842485	          0.05331708	          0.05506891	          0.18885054	          0.07172680	          0.11563262	          0.05000014	          0.05000006	          0.19482219	          0.08449564	          0.05543342	          0.05000190	          0.05000018	          0.05000014	          0.05000008	          0.05000028	          0.08827402	          0.39141926	          0.05000045	          0.15899716	          0.11798885	          0.28707889	          0.05000084	          0.05000029	          0.05000382	          0.05000280	          0.05000211	          0.05000036	          0.21068173	          0.05000003	          0.05000019	          0.13784788	          0.64806364	          0.13134182	          0.13287153	          0.10408676	          0.49096959	          0.74019232	          0.12529077	          0.42394638	          0.99266302	          0.67740032	          0.21152147	          0.56544403	          0.49764948	          0.05000019	          0.05000004	          0.08513742	          0.05000000	          0.05000002	          0.05000003	
          0.60567549	         -2.87806072	          3.80071105	        -10.79601341	          0.81233176	          0.89288066	          0.00789513	         32.32368947	          0.32742938	        -11.05472263	        -13.30586634	         -5.25268986	        -14.14731473	        -16.35334353	        -20.85594587	          3.46618166	         -4.57012893	         -5.44123397	         -5.78233490	          7.90027809	          8.89721184	         -5.21430566	         31.07865065	         -3.93086403	         -1.21605169	          2.69096817	         -9.17101332	        -13.45001859	         12.37237489	          9.08204962	        -13.57246066	         19.25134249	         16.49085127	         45.17015714	         86.51662706	         86.51662706	          0.05000005	          0.05000005	          0.05000007	          0.05000008	          0.05000008	          0.05000013	          0.08774957	          0.05000007	          0.05000005	          0.05006086	          0.12981135	          0.17027136	          0.20666871	          0.09507031	          0.07010725	          0.34638761	          0.06006419	          0.08518859	          0.08579546	          0.05000014	          0.20827666	          0.43053589	          0.12562292	          0.14377933	          0.50750633	          0.14685486	          0.20151832	          0.08376475	          0.08275656	          0.13825631	          0.10008584	          0.10166496	          0.10163941	          0.06162644	          0.05000009	          0.05000001	          0.05000001	          0.82654993	          0.11036165	          0.26646783	          0.71109554	          0.67306256	          0.23825590	          0.06565763	          0.16125369	          0.06006633	          0.09683449	          0.05970580	          0.05970652	          0.16315039	          0.07075953	          0.05970648	          0.05000056	          0.05000010	          0.05000026	          0.05000004	          0.05000060	          0.19311236	          0.50411302	          0.43115310	          0.26391379	          0.14950934	          0.24040929	          0.05000557	          0.05000042	          0.05869803	          0.05969985	          0.07448530	          0.05000005	          0.34146425	          0.07451399	          0.05970658	          0.12881395	          0.54270930	          0.10999153	          0.11127117	          0.08716640	          0.46829126	          0.71167684	          0.14347398	          0.35502628	          0.99586883	          0.58584615	          0.51046557	          0.54768085	          0.41674763	          0.46524283	          0.05000002	          0.07129680	          0.06701440	          0.05970626	          0.05000007	
          0.61732310	         -2.88351996	          3.85938003	        -11.21100028	          0.83157156	          0.89040987	          0.00719850	         32.64688156	          0.34267605	        -10.95910806	        -14.93533322	         -5.63593678	        -14.56656026	        -18.96818591	        -19.66154219	          2.92891283	         -6.15678505	         -5.15664116	         -6.03387108	          7.99749158	          8.73801706	         -4.05754849	         31.43934105	         -3.78397433	         -1.35623519	          2.85375727	        -10.78518640	        -13.45584240	         12.62858660	          8.95610948	        -13.55132613	         19.34334186	         16.64397035	         46.95056904	         86.51662706	         86.51662706	          0.26046852	          0.30769891	          0.30704168	          0.29528038	          0.31607119	          0.25655917	          0.09727657	          0.14696132	          0.10241054	          0.09839992	          0.10870826	          0.14259072	          0.17307103	          0.07961497	          0.05871014	          0.39463364	          0.05029984	          0.07133985	          0.22771663	          0.20928909	          0.29086237	          0.50978047	          0.10520067	          0.12040544	          0.42500210	          0.12298112	          0.16875812	          0.07014729	          0.06930300	          0.11578027	          0.08381509	          0.08513749	          0.08511610	          0.05160795	          0.10251719	          0.23591840	          0.12771695	          0.79249668	          0.09242039	          0.33897766	          0.59549491	          0.78518393	          0.19952315	          0.09822650	          0.20671578	          0.05030148	          0.08109243	          0.05000012	          0.05000021	          0.13662746	          0.05925670	          0.05000068	          0.05001727	          0.07119910	          0.05000102	          0.05000069	          0.05000098	          0.48526686	          0.45832742	          0.36106153	          0.22101030	          0.12520425	          0.25477488	          0.05969125	          0.05000136	          0.05000284	          0.05000162	          0.06237684	          0.08259787	          0.50958763	          0.06240043	          0.05000035	          0.10787328	          0.45448220	          0.09211048	          0.09318208	          0.07299598	          0.47388352	          0.75033088	          0.16424782	          0.29731039	          0.97316742	          0.49060699	          0.72443991	          0.48319088	          0.34899783	          0.69898392	          0.05000004	          0.05970623	          0.07413807	          0.05000000	          0.05000008	
